PathFileType	4	(X/Y/Z)	1_2_38_p1_0-226.trc
DataRate	CameraRate	NumFrames	NumMarkers	Units	OrigDataRate	OrigDataStartFrame	OrigNumFrames
60.0	60.0	4	27	m	60.0	0	227
Frame#	Time	RHip			RKnee			RAnkle			RBigToe			RSmallToe			RHeel			LHip			LKnee			LAnkle			LBigToe			LSmallToe			LHeel			Neck			Head			Nose			RShoulder			RElbow			RWrist			RThumb			RIndex			RPinky			LShoulder			LElbow			LWrist			LThumb			LIndex			LPinky			
		X1	Y1	Z1	X2	Y2	Z2	X3	Y3	Z3	X4	Y4	Z4	X5	Y5	Z5	X6	Y6	Z6	X7	Y7	Z7	X8	Y8	Z8	X9	Y9	Z9	X10	Y10	Z10	X11	Y11	Z11	X12	Y12	Z12	X13	Y13	Z13	X14	Y14	Z14	X15	Y15	Z15	X16	Y16	Z16	X17	Y17	Z17	X18	Y18	Z18	X19	Y19	Z19	X20	Y20	Z20	X21	Y21	Z21	X22	Y22	Z22	X23	Y23	Z23	X24	Y24	Z24	X25	Y25	Z25	X26	Y26	Z26	X27	Y27	Z27	
0	0.0	0.37578737875933266	0.25189348884515167	1.1102574458325905	0.3803795709863129	0.3297469383914086	1.4947017943493872	0.37849963627228594	0.3974654091406902	1.9419606806349612	0.35283606536397105	0.24049469903768103	1.9928557598597239	0.4122525180843358	0.2999330641911746	2.013189224510014	0.34491505074089357	0.4781556731449255	2.001367748755634	0.14170485261585258	0.2688742354995632	1.1339502293249675	0.1831140483240041	0.32471316852099613	1.5147200044666111	0.1987646135542653	0.43194096979266794	1.9480480705966734	0.16501583158097333	0.24934664990811575	2.012406815455501	0.12459202790085282	0.24372968576061763	1.9816188081059194	0.21500887880116606	0.47090220989709547	1.9928232367443035	0.26104018380418503	0.20535462919327452	0.46712527889505034	0.2607881949752238	0.10874045959469901	0.22248751088637175	0.2721463157256661	0.08006196452127973	0.36992538679725295	0.45236814840049794	0.1830902681987253	0.5538054228262387	0.47485486157217294	0.2043191693799067	0.8765773654171874	0.3252894867092861	0.10524837470313059	1.0745449052964502	0.262109379887048	0.0936105392196802	1.1519270522073188	0.24963362126265912	0.109721452579259	1.1751967955631781	0.26239348328406614	0.14908978992977523	1.1830335870314255	0.0934339124028858	0.24266539031776022	0.566664711419706	0.06708347964890508	0.19383507199047298	0.8597729644535542	0.22150912509684853	0.07706424373137571	1.0466796638848186	0.3115218359005675	0.053138330648084896	1.110286975128809	0.31783633096793384	0.07241026322573646	1.1462502395703071	0.27436060076964724	0.11638749431189577	1.1796686202961817
1	0.016666666666666666	0.37570432429030937	0.25174525238855044	1.1099806346351204	0.3804387155458765	0.3282567941224748	1.4979759806698463	0.37432234143332666	0.4137652651718556	1.9505607898456714	0.3503307854395096	0.2388469598752371	1.9920054299800278	0.4123376726799251	0.3001230481277425	2.013116860744217	0.3449088160667522	0.47840522784431516	2.0014209427140033	0.1409850848198124	0.26715771932443866	1.1291702316265444	0.18667918899242358	0.3348396247995279	1.5227863556272727	0.1983760493113751	0.43084406548886606	1.951756721950973	0.17020088589512936	0.23216162414793423	2.0113071548914134	0.12014010345352179	0.2410342863739732	1.9806734884619557	0.21478507571657418	0.4697758420017653	1.996504533709944	0.2641934472556657	0.21640331624495732	0.4670258274076796	0.26085451870710347	0.10857482937713972	0.22254390933488447	0.2684585462898991	0.07860494240473215	0.37006152931588615	0.44916719850994696	0.19645510436428062	0.5551958008223884	0.47487437041677283	0.20434277043837493	0.8765719364093139	0.3294819617156324	0.10757538674640463	1.0751362403232823	0.2752884613542124	0.07078125919437699	1.1451242157863852	0.2579773958683584	0.0990830759435994	1.1716074869629631	0.26282429320717837	0.13967433136704804	1.1767372484540357	0.0978234047768498	0.23058355907384173	0.565450118410336	0.0622389477957149	0.2060991158575917	0.8625659824038288	0.2180081074402499	0.09081237550297011	1.0547165110352434	0.31161352708763135	0.05270537483313088	1.1100908452177156	0.32180725736217264	0.06250883328881496	1.1422598510697533	0.28189481720101556	0.13675940584398158	1.1849922474292667
2	0.03333333333333333	0.372373881947075	0.2678954645754643	1.1184963669953643	0.3804531225895685	0.32859189087856194	1.4983764761627165	0.3743153440227659	0.41392164447399277	1.9505785756785212	0.3525913492957971	0.2400148796706364	1.9926004145434661	0.4118038644411006	0.30110647679429847	2.0105642039258	0.34496576463163764	0.47871432986341544	2.001733532252649	0.14147673433390023	0.26907451768230295	1.1341165036471463	0.1863061180089259	0.336919215437247	1.5189228084893889	0.1986467826316902	0.43225558559717464	1.948322515757895	0.16604615460214003	0.22975627755119443	2.0103380224256218	0.12012263769265782	0.24098914802194243	1.9806724550061672	0.21602805734387293	0.47362205486405345	1.999279934674753	0.26418685324858115	0.21643443170677445	0.46702954880285585	0.2608432165067302	0.10866847784323001	0.2225184799380395	0.2684594936215502	0.07846602898554082	0.3700682819036766	0.44861532422534434	0.19862873623450297	0.5523109932238658	0.4748235880219593	0.20429973452451317	0.8766577851762104	0.32546798217569217	0.105066199530685	1.074763981083444	0.28342244048138454	0.06953725255053088	1.1434160120080565	0.26075446369113003	0.10773117418235097	1.1695347341485955	0.25715615335055186	0.1359142092435656	1.1682706313346813	0.09782296570803248	0.23056862363001102	0.5654142939555119	0.062250323148871495	0.20611575994437026	0.8625553105674321	0.21780671404946916	0.09085816453249704	1.0546592084852382	0.3146311034022436	0.06188690152412065	1.111907640858688	0.32114656773726696	0.06075606488900726	1.1386461169933229	0.28091750834241164	0.13533582532561844	1.1813650355935803
3	0.05	0.372347193262084	0.26787900123633446	1.1186472334429416	0.38073836253313265	0.3288326202841933	1.4986960017425957	0.3743076555751445	0.4139327087883817	1.9506234749572857	0.34859111579035806	0.23696687456316645	1.9861980271114559	0.41212610812770434	0.3000232008693697	2.0129775699258032	0.34486881754260934	0.47865759469126756	2.001639566107716	0.14187656937498458	0.26762990022280997	1.1376519769359816	0.18683421266143396	0.3348973384557454	1.5229707494388285	0.19835977476708425	0.4309886211660358	1.9519533011230448	0.17348477352361777	0.2446722138074996	2.017718843392763	0.12288774838077453	0.2530314039289402	1.9867452598366055	0.21474586277656113	0.47008479500483447	1.9969492172406818	0.264163830351922	0.21649486045296096	0.46703351200350574	0.26088346167541226	0.10852138474968306	0.2225238045313146	0.2684652006360669	0.07847434651541425	0.37006335520221284	0.4485740526584974	0.19874215085483815	0.5522489652311506	0.4748013714923722	0.20454142427175723	0.8775545239936113	0.3256353137474919	0.10383956090075021	1.0781339329558202	0.28371547504148315	0.06973588192035006	1.1430989022640456	0.26084111455715886	0.10809025122973388	1.1695158373924655	0.2575444148480992	0.13456425382730303	1.1717898907663356	0.0977917762173368	0.2305395107168782	0.5654343722869329	0.06255505058800796	0.2050729388865184	0.8660868361048898	0.21782383061356522	0.09088457772880308	1.0546405556599183	0.3146417482512785	0.06231668188220233	1.111942889656475	0.32047151902483534	0.06700866966372503	1.1435698224260809	0.2773092447933706	0.1252304586518928	1.1787650406275176
